<svg width="80" height="80" viewBox="0 0 80 80" fill="none" xmlns="http://www.w3.org/2000/svg">
<g id="Pull Quote Mark">
<circle id="Ellipse 1" cx="40" cy="40" r="39.5" stroke="#006BC0"/>
<path id="&#226;&#128;&#156;" d="M27.0588 41.8236C27.0588 45.8824 29.5294 48.6471 33.1176 48.6471C36 48.6471 38.4706 47.0589 38.4706 43.7059C38.4706 40.2942 35.5882 38.7059 32.8235 39.1177C32.8235 36.2353 35.1176 34.9412 38.6471 34.6471V31.1765C31.9412 31.1765 27.0588 34.0589 27.0588 41.8236ZM41.4706 41.8236C41.4706 45.8824 43.9412 48.6471 47.5294 48.6471C50.4118 48.6471 52.8824 47.0589 52.8824 43.7059C52.8824 40.2942 50 38.7059 47.2353 39.1177C47.2353 36.2353 49.5294 34.9412 53.0588 34.6471V31.1765C46.3529 31.1765 41.4706 34.0589 41.4706 41.8236Z" fill="#006BC0"/>
</g>
</svg>
