<svg width="160" height="41" viewBox="0 0 160 41" fill="none" xmlns="http://www.w3.org/2000/svg">
<g id="Haven Logo White" clip-path="url(#clip0_7_340)">
<path id="Vector" d="M19.0566 40.5001V27.0787H6.96855V40.5001H0V8.43091H6.96855V21.5378H19.0566V8.43091H26.0314V40.5001H19.0566Z" fill="white"/>
<path id="Vector_2" d="M57.1824 40.5L55.0755 34.8397H42.3837L40.2265 40.5H32.956L45.9434 8.42456H51.4151L64.4529 40.5H57.1824ZM48.8554 17.8585L44.3396 29.5315H53.2201L48.8554 17.8585Z" fill="white"/>
<path id="Vector_3" d="M80.6793 40.5001H75.4591L63.673 8.43091H70.8994L78.0692 29.3303L85.239 8.43091H92.5158L80.6793 40.5001Z" fill="white"/>
<path id="Vector_4" d="M99.2579 40.5001V8.43091H122.78V14.0158H106.226V21.5378H120.321V27.1227H106.226V34.9152H122.78V40.5001H99.2579Z" fill="white"/>
<path id="Vector_5" d="M153.226 40.5001L139.082 20.8146V40.5001H132.113V8.43091H138.333L152.478 28.0724V8.43091H159.447V40.5001H153.226Z" fill="white"/>
<path id="Vector_6" d="M72.7547 0.5L83.4402 0.556604L78.0692 15.8459L72.7547 0.5Z" fill="white"/>
</g>
<defs>
<clipPath id="clip0_7_340">
<rect width="159.447" height="40" fill="white" transform="translate(0 0.5)"/>
</clipPath>
</defs>
</svg>
