<svg width="35" height="35" viewBox="0 0 35 35" fill="none" xmlns="http://www.w3.org/2000/svg">
<g id="1464922183_linkedin 1" clip-path="url(#clip0_282_32)">
<path id="Vector" d="M17.5 0C7.81667 0 0 7.875 0 17.5C0 27.1833 7.81667 35 17.5 35C27.1833 35 35 27.1833 35 17.5C35 7.875 27.1833 0 17.5 0ZM13.0083 25.6083H9.625V14.7583H13.0083V25.6083ZM11.3167 13.3C10.2083 13.3 9.33333 12.425 9.33333 11.3167C9.33333 10.2083 10.2083 9.33333 11.3167 9.33333C12.3667 9.33333 13.2417 10.2083 13.3 11.3167C13.3 12.425 12.425 13.3 11.3167 13.3ZM25.6667 25.6667H22.2833V20.3583C22.2833 19.075 22.2833 17.4417 20.5333 17.4417C18.7833 17.4417 18.4917 18.7833 18.4917 20.2417V25.6083H15.1083V14.7583H18.3167V16.275H18.375C18.8417 15.4 19.8917 14.525 21.5833 14.525C25.025 14.525 25.6083 16.7417 25.6667 19.7167V25.6667Z" fill="white"/>
</g>
<defs>
<clipPath id="clip0_282_32">
<rect width="35" height="35" fill="white"/>
</clipPath>
</defs>
</svg>
